<?xml version="1.0" encoding="UTF-8" standalone="no" ?>
<!DOCTYPE svg PUBLIC "-//W3C//DTD SVG 1.1//EN" "http://www.w3.org/Graphics/SVG/1.1/DTD/svg11.dtd">
<svg xmlns="http://www.w3.org/2000/svg" xmlns:xlink="http://www.w3.org/1999/xlink" version="1.1" width="750" height="750" viewBox="0 0 750 750" xml:space="preserve">
<desc>Created with Fabric.js 3.6.6</desc>
<defs>
</defs>
<g transform="matrix(7.5 0 0 7.5 374.02 374.58)"  >
<polygon style="stroke: rgb(0,0,0); stroke-width: 0; stroke-dasharray: none; stroke-linecap: butt; stroke-dashoffset: 0; stroke-linejoin: miter; stroke-miterlimit: 4; fill: rgb(253,254,203); fill-rule: nonzero; opacity: 1;"  points="-50,-50 -50,50 50,50 50,-50 " />
</g>
<g transform="matrix(5.85 0 0 5.85 399.17 383.22)"  >
<g style=""   >
		<g transform="matrix(0.5 0 0 0.5 8.84 8.83)"  >
<path style="stroke: none; stroke-width: 1; stroke-dasharray: none; stroke-linecap: butt; stroke-dashoffset: 0; stroke-linejoin: miter; stroke-miterlimit: 4; fill: rgb(251,239,168); fill-rule: evenodd; opacity: 1;"  transform=" translate(-67.68, -67.67)" d="M 35.354 68.687 h 19.1 c 4.953 0 6.75 -0.516 8.56 -1.484 s 3.232 -2.39 4.2 -4.2 s 1.484 -3.607 1.484 -8.56 v -19.1 H 89.64 c 3.602 0 4.908 0.375 6.225 1.08 a 7.34 7.34 0 0 1 3.055 3.055 c 0.704 1.317 1.08 2.623 1.08 6.225 V 89.64 c 0 3.602 -0.375 4.908 -1.08 6.225 a 7.34 7.34 0 0 1 -3.055 3.055 c -1.317 0.704 -2.623 1.08 -6.225 1.08 H 45.713 c -3.602 0 -4.908 -0.375 -6.225 -1.08 a 7.34 7.34 0 0 1 -3.055 -3.055 c -0.704 -1.317 -1.08 -2.623 -1.08 -6.225 V 68.687 z" stroke-linecap="round" />
</g>
		<g transform="matrix(0.5 0 0 0.5 14.73 14.81)"  >
<path style="stroke: none; stroke-width: 1; stroke-dasharray: none; stroke-linecap: butt; stroke-dashoffset: 0; stroke-linejoin: miter; stroke-miterlimit: 4; fill: rgb(183,160,1); fill-rule: nonzero; opacity: 1;"  transform=" translate(-79.47, -79.62)" d="M 87.88 74.277 c 0 -0.957 -0.79 -1.733 -1.766 -1.733 s -1.766 0.776 -1.766 1.733 v 7.686 L 74.06 71.864 a 1.79 1.79 0 0 0 -2.496 0 a 1.71 1.71 0 0 0 0 2.45 L 81.85 84.413 h -7.828 c -0.976 0 -1.766 0.776 -1.766 1.733 s 0.79 1.733 1.766 1.733 h 12.1 a 1.81 1.81 0 0 0 0.674 -0.133 c 0.43 -0.175 0.776 -0.513 0.954 -0.937 c 0.1 -0.21 0.136 -0.436 0.136 -0.66 l 0.002 -11.87 z" stroke-linecap="round" />
</g>
		<g transform="matrix(0.5 0 0 0.5 -8.84 -8.84)"  >
<path style="stroke: none; stroke-width: 1; stroke-dasharray: none; stroke-linecap: butt; stroke-dashoffset: 0; stroke-linejoin: miter; stroke-miterlimit: 4; fill: rgb(214,191,45); fill-rule: evenodd; opacity: 1;"  transform=" translate(-32.32, -32.32)" d="M 10.36 0 h 43.928 c 3.602 0 4.908 0.375 6.225 1.08 a 7.34 7.34 0 0 1 3.055 3.055 c 0.704 1.317 1.08 2.623 1.08 6.225 v 43.928 c 0 3.602 -0.375 4.908 -1.08 6.225 a 7.34 7.34 0 0 1 -3.055 3.055 c -1.317 0.704 -2.623 1.08 -6.225 1.08 H 10.36 c -3.602 0 -4.908 -0.375 -6.225 -1.08 a 7.34 7.34 0 0 1 -3.055 -3.055 C 0.375 59.196 0 57.89 0 54.287 V 10.36 C 0 6.757 0.375 5.45 1.08 4.134 a 7.34 7.34 0 0 1 3.055 -3.055 C 5.45 0.375 6.757 0 10.36 0 z" stroke-linecap="round" />
</g>
		<g transform="matrix(0.5 0 0 0.5 -8.21 -8.92)"  >
<path style="stroke: none; stroke-width: 1; stroke-dasharray: none; stroke-linecap: butt; stroke-dashoffset: 0; stroke-linejoin: miter; stroke-miterlimit: 4; fill: rgb(255,255,255); fill-rule: nonzero; opacity: 1;"  transform=" translate(-33.59, -32.16)" d="M 6.444 37.69 V 26.63 c 0 -0.93 0.608 -1.558 1.558 -1.558 S 9.56 25.7 9.56 26.63 v 3.876 h 5.662 V 26.63 c 0 -0.93 0.608 -1.558 1.558 -1.558 s 1.558 0.627 1.558 1.558 V 37.69 c 0 0.93 -0.608 1.558 -1.558 1.558 s -1.558 -0.627 -1.558 -1.558 v -4.56 H 9.56 v 4.56 c 0 0.93 -0.608 1.558 -1.558 1.558 s -1.558 -0.627 -1.558 -1.558 z m 18.126 0 v -9.747 h -2.945 c -0.893 0 -1.615 -0.456 -1.615 -1.31 s 0.722 -1.31 1.615 -1.31 h 9.006 c 0.893 0 1.615 0.456 1.615 1.31 s -0.722 1.31 -1.615 1.31 h -2.945 v 9.747 c 0 0.93 -0.608 1.558 -1.558 1.558 s -1.558 -0.627 -1.558 -1.558 z m 9.29 0.038 V 26.612 c 0 -1.254 0.855 -1.54 1.69 -1.54 h 0.912 c 0.97 0 1.425 0.38 1.748 1.425 l 2.717 8.778 h 0.038 l 2.68 -8.778 c 0.323 -1.045 0.78 -1.425 1.748 -1.425 h 0.874 c 0.836 0 1.69 0.285 1.69 1.54 v 11.115 c 0 0.78 -0.38 1.52 -1.387 1.52 s -1.387 -0.74 -1.387 -1.52 v -8.474 h -0.038 l -2.907 9.082 c -0.21 0.646 -0.684 0.912 -1.33 0.912 s -1.12 -0.266 -1.33 -0.912 l -2.907 -9.082 h -0.038 v 8.474 c 0 0.78 -0.38 1.52 -1.387 1.52 s -1.387 -0.74 -1.387 -1.52 z m 16.93 -0.55 V 26.63 c 0 -0.93 0.608 -1.558 1.558 -1.558 s 1.558 0.627 1.558 1.558 v 9.747 h 5.206 c 0.893 0 1.615 0.456 1.615 1.31 S 60.005 39 59.112 39 h -6.498 c -1.102 0 -1.824 -0.437 -1.824 -1.824 z" stroke-linecap="round" />
</g>
</g>
</g>
</svg>