<?xml version="1.0" encoding="UTF-8" standalone="no" ?>
<!DOCTYPE svg PUBLIC "-//W3C//DTD SVG 1.1//EN" "http://www.w3.org/Graphics/SVG/1.1/DTD/svg11.dtd">
<svg xmlns="http://www.w3.org/2000/svg" xmlns:xlink="http://www.w3.org/1999/xlink" version="1.1" width="750" height="750" viewBox="0 0 750 750" xml:space="preserve">
<desc>Created with Fabric.js 3.6.6</desc>
<defs>
</defs>
<g transform="matrix(7.51 0 0 7.51 374.52 376.42)"  >
<polygon style="stroke: rgb(0,0,0); stroke-width: 0; stroke-dasharray: none; stroke-linecap: butt; stroke-dashoffset: 0; stroke-linejoin: miter; stroke-miterlimit: 4; fill: rgb(209,244,198); fill-rule: nonzero; opacity: 1;"  points="-50,-50 -50,50 50,50 50,-50 " />
</g>
<g transform="matrix(5.88 0 0 5.88 396.11 382.37)"  >
<g style=""   >
		<g transform="matrix(1 0 0 1 8.84 8.84)"  >
<path style="stroke: none; stroke-width: 1; stroke-dasharray: none; stroke-linecap: butt; stroke-dashoffset: 0; stroke-linejoin: miter; stroke-miterlimit: 4; fill: rgb(91,160,96); fill-rule: evenodd; opacity: 1;"  transform=" translate(-33.84, -33.84)" d="M 17.676 34.344 h 9.55 c 2.477 0 3.375 -0.258 4.28 -0.742 a 5.04 5.04 0 0 0 2.098 -2.102 c 0.484 -0.902 0.742 -1.8 0.742 -4.277 v -9.547 H 44.82 c 1.8 0 2.453 0.188 3.113 0.54 s 1.176 0.87 1.527 1.527 s 0.54 1.31 0.54 3.113 V 44.82 c 0 1.8 -0.187 2.453 -0.54 3.113 a 3.69 3.69 0 0 1 -1.527 1.527 c -0.66 0.352 -1.312 0.54 -3.113 0.54 H 22.855 c -1.8 0 -2.453 -0.187 -3.113 -0.54 s -1.172 -0.87 -1.527 -1.527 s -0.54 -1.312 -0.54 -3.113 z m 0 0" stroke-linecap="round" />
</g>
		<g transform="matrix(1 0 0 1 14.73 14.81)"  >
<path style="stroke: none; stroke-width: 1; stroke-dasharray: none; stroke-linecap: butt; stroke-dashoffset: 0; stroke-linejoin: miter; stroke-miterlimit: 4; fill: rgb(255,255,255); fill-rule: nonzero; opacity: 1;"  transform=" translate(-39.73, -39.81)" d="M 43.94 37.137 c 0 -0.477 -0.395 -0.863 -0.883 -0.863 s -0.883 0.387 -0.883 0.863 v 3.844 l -5.145 -5.047 c -0.348 -0.34 -0.902 -0.34 -1.25 0 a 0.85 0.85 0 0 0 -0.258 0.609 a 0.86 0.86 0 0 0 0.258 0.613 l 5.145 5.05 h -3.914 c -0.488 0 -0.883 0.387 -0.883 0.867 s 0.395 0.867 0.883 0.867 h 6.05 c 0.113 -0.004 0.227 -0.023 0.336 -0.07 a 0.87 0.87 0 0 0 0.477 -0.465 c 0.05 -0.105 0.066 -0.22 0.066 -0.332 l 0.004 -5.934 z m 0 0" stroke-linecap="round" />
</g>
		<g transform="matrix(1 0 0 1 -8.84 -8.84)"  >
<path style="stroke: none; stroke-width: 1; stroke-dasharray: none; stroke-linecap: butt; stroke-dashoffset: 0; stroke-linejoin: miter; stroke-miterlimit: 4; fill: rgb(193,226,193); fill-rule: evenodd; opacity: 1;"  transform=" translate(-16.16, -16.16)" d="M 27.145 32.324 H 5.18 c -1.8 0 -2.453 -0.187 -3.113 -0.543 S 0.89 30.914 0.54 30.254 S 0 28.95 0 27.145 V 5.18 c 0 -1.8 0.188 -2.453 0.54 -3.113 A 3.69 3.69 0 0 1 2.066 0.539 C 2.727 0.188 3.38 0 5.18 0 h 21.965 c 1.8 0 2.453 0.188 3.113 0.54 s 1.172 0.87 1.527 1.527 s 0.54 1.313 0.54 3.113 v 21.965 c 0 1.8 -0.187 2.453 -0.54 3.113 s -0.87 1.176 -1.527 1.527 s -1.312 0.54 -3.113 0.54 z m 0 0" stroke-linecap="round" />
</g>
		<g transform="matrix(1 0 0 1 -8.75 -8.75)"  >
<path style="stroke: none; stroke-width: 1; stroke-dasharray: none; stroke-linecap: butt; stroke-dashoffset: 0; stroke-linejoin: miter; stroke-miterlimit: 4; fill: rgb(45,112,53); fill-rule: evenodd; opacity: 1;"  transform=" translate(-16.25, -16.25)" d="M 19.11 23.5 l -2.508 -4.72 c -0.102 -0.176 -0.195 -0.5 -0.3 -0.973 h -0.04 c -0.047 0.223 -0.16 0.56 -0.336 1.012 L 13.4 23.5 H 9.5 l 4.64 -7.25 L 9.895 9 h 3.992 l 2.082 4.348 c 0.164 0.344 0.313 0.754 0.438 1.227 h 0.04 c 0.082 -0.285 0.234 -0.703 0.457 -1.266 L 19.22 9 h 3.66 l -4.37 7.19 L 23 23.5 z m 0 0" stroke-linecap="round" />
</g>
</g>
</g>
</svg>