<?xml version="1.0" encoding="UTF-8" standalone="no" ?>
<!DOCTYPE svg PUBLIC "-//W3C//DTD SVG 1.1//EN" "http://www.w3.org/Graphics/SVG/1.1/DTD/svg11.dtd">
<svg xmlns="http://www.w3.org/2000/svg" xmlns:xlink="http://www.w3.org/1999/xlink" version="1.1" width="750" height="750" viewBox="0 0 750 750" xml:space="preserve">
<desc>Created with Fabric.js 3.6.6</desc>
<defs>
</defs>
<g transform="matrix(7.5 0 0 7.5 375.15 374.46)"  >
<polygon style="stroke: rgb(0,0,0); stroke-width: 0; stroke-dasharray: none; stroke-linecap: butt; stroke-dashoffset: 0; stroke-linejoin: miter; stroke-miterlimit: 4; fill: rgb(253,254,203); fill-rule: nonzero; opacity: 1;"  points="-50,-50 -50,50 50,50 50,-50 " />
</g>
<g transform="matrix(5.75 0 0 5.75 396.82 382.99)"  >
<g style=""   >
		<g transform="matrix(1 0 0 1 8.84 8.84)"  >
<path style="stroke: none; stroke-width: 1; stroke-dasharray: none; stroke-linecap: butt; stroke-dashoffset: 0; stroke-linejoin: miter; stroke-miterlimit: 4; fill: rgb(249,237,165); fill-rule: evenodd; opacity: 1;"  transform=" translate(-33.84, -33.84)" d="M 17.676 34.344 h 9.55 c 2.477 0 3.375 -0.258 4.28 -0.742 a 5.04 5.04 0 0 0 2.098 -2.102 c 0.484 -0.902 0.742 -1.8 0.742 -4.277 v -9.547 H 44.82 c 1.8 0 2.453 0.188 3.113 0.54 s 1.176 0.87 1.527 1.527 s 0.54 1.31 0.54 3.113 V 44.82 c 0 1.8 -0.187 2.453 -0.54 3.113 a 3.69 3.69 0 0 1 -1.527 1.527 c -0.66 0.352 -1.312 0.54 -3.113 0.54 H 22.855 c -1.8 0 -2.453 -0.187 -3.113 -0.54 s -1.172 -0.87 -1.527 -1.527 s -0.54 -1.312 -0.54 -3.113 z m 0 0" stroke-linecap="round" />
</g>
		<g transform="matrix(1 0 0 1 14.73 14.81)"  >
<path style="stroke: none; stroke-width: 1; stroke-dasharray: none; stroke-linecap: butt; stroke-dashoffset: 0; stroke-linejoin: miter; stroke-miterlimit: 4; fill: rgb(181,158,0); fill-rule: nonzero; opacity: 1;"  transform=" translate(-39.73, -39.81)" d="M 43.94 37.137 c 0 -0.477 -0.395 -0.863 -0.883 -0.863 s -0.883 0.387 -0.883 0.863 v 3.844 l -5.145 -5.047 c -0.348 -0.34 -0.902 -0.34 -1.25 0 a 0.85 0.85 0 0 0 -0.258 0.609 a 0.86 0.86 0 0 0 0.258 0.613 l 5.145 5.05 h -3.914 c -0.488 0 -0.883 0.387 -0.883 0.867 s 0.395 0.867 0.883 0.867 h 6.05 c 0.113 -0.004 0.227 -0.023 0.336 -0.07 a 0.87 0.87 0 0 0 0.477 -0.465 c 0.05 -0.105 0.066 -0.22 0.066 -0.332 l 0.004 -5.934 z m 0 0" stroke-linecap="round" />
</g>
		<g transform="matrix(1 0 0 1 -8.82 -8.82)"  >
<path style="stroke: none; stroke-width: 1; stroke-dasharray: none; stroke-linecap: butt; stroke-dashoffset: 0; stroke-linejoin: miter; stroke-miterlimit: 4; fill: rgb(211,188,43); fill-rule: evenodd; opacity: 1;"  transform=" translate(-16.18, -16.18)" d="M 5.184 0 h 21.988 c 1.8 0 2.453 0.188 3.113 0.54 c 0.652 0.344 1.184 0.88 1.527 1.53 c 0.352 0.656 0.54 1.313 0.54 3.113 v 21.984 c 0 1.805 -0.187 2.457 -0.54 3.117 c -0.344 0.648 -0.875 1.184 -1.527 1.527 c -0.66 0.352 -1.312 0.54 -3.113 0.54 H 5.184 c -1.8 0 -2.457 -0.187 -3.113 -0.54 c -0.652 -0.344 -1.184 -0.88 -1.527 -1.527 C 0.188 29.625 0 28.973 0 27.168 V 5.184 c 0 -1.8 0.188 -2.457 0.54 -3.113 c 0.344 -0.652 0.88 -1.184 1.53 -1.53 S 3.383 0 5.184 0 z m 0 0" stroke-linecap="round" />
</g>
		<g transform="matrix(1 0 0 1 -8.97 -8.84)"  >
<path style="stroke: none; stroke-width: 1; stroke-dasharray: none; stroke-linecap: butt; stroke-dashoffset: 0; stroke-linejoin: miter; stroke-miterlimit: 4; fill: rgb(255,255,255); fill-rule: evenodd; opacity: 1;"  transform=" translate(-16.03, -16.16)" d="M 10.28 12.945 v 4.688 c 0 1.66 -0.926 2.66 -2.707 2.66 C 5.406 20.293 5 18.852 5 18.07 c 0 -0.668 0.31 -1.098 0.86 -1.098 c 0.648 0 0.813 0.504 0.813 1.05 c 0 0.516 0.242 0.89 0.88 0.89 c 0.594 0 0.926 -0.44 0.926 -1.3 V 12.95 c 0 -0.54 0.352 -0.898 0.902 -0.898 s 0.902 0.36 0.902 0.898 z m 1.672 6.402 v -6.102 c 0 -0.8 0.418 -1.055 1.055 -1.055 h 2.762 c 1.516 0 2.738 0.75 2.738 2.508 c 0 1.44 -1 2.508 -2.75 2.508 h -2 v 2.152 c 0 0.54 -0.355 0.902 -0.902 0.902 s -0.902 -0.363 -0.902 -0.902 z m 1.805 -5.773 v 2.242 h 1.68 c 0.727 0 1.266 -0.437 1.266 -1.12 c 0 -0.793 -0.56 -1.12 -1.45 -1.12 z m 13.285 3.1 v 2.984 c 0 0.332 -0.254 0.602 -0.613 0.602 c -0.52 0 -0.66 -0.32 -0.773 -1.023 c -0.516 0.648 -1.23 1.066 -2.352 1.066 c -2.793 0 -3.863 -1.926 -3.863 -4.145 c 0 -2.676 1.672 -4.148 4.125 -4.148 c 2.004 0 3.07 1.2 3.07 1.902 c 0 0.63 -0.46 0.793 -0.848 0.793 c -0.89 0 -0.56 -1.242 -2.32 -1.242 c -1.242 0 -2.223 0.813 -2.223 2.816 c 0 1.56 0.77 2.637 2.246 2.637 c 0.957 0 1.793 -0.648 1.88 -1.617 H 24.2 c -0.383 0 -0.812 -0.14 -0.812 -0.69 c 0 -0.44 0.254 -0.69 0.703 -0.69 h 2.223 c 0.527 0 0.738 0.262 0.738 0.758 z m 0 0" stroke-linecap="round" />
</g>
</g>
</g>
</svg>