<?xml version="1.0" encoding="UTF-8" standalone="no" ?>
<!DOCTYPE svg PUBLIC "-//W3C//DTD SVG 1.1//EN" "http://www.w3.org/Graphics/SVG/1.1/DTD/svg11.dtd">
<svg xmlns="http://www.w3.org/2000/svg" xmlns:xlink="http://www.w3.org/1999/xlink" version="1.1" width="750" height="750" viewBox="0 0 750 750" xml:space="preserve">
<desc>Created with Fabric.js 3.6.6</desc>
<defs>
</defs>
<g transform="matrix(7.5 0 0 7.5 374.73 373.97)"  >
<polygon style="stroke: rgb(0,0,0); stroke-width: 0; stroke-dasharray: none; stroke-linecap: butt; stroke-dashoffset: 0; stroke-linejoin: miter; stroke-miterlimit: 4; fill: rgb(154,158,234); fill-rule: nonzero; opacity: 1;"  points="-50,-50 -50,50 50,50 50,-50 " />
</g>
<g transform="matrix(5.86 0 0 5.86 405.02 385.64)"  >
<g style=""   >
		<g transform="matrix(1 0 0 1 -8.64 -8.64)"  >
<path style="stroke: none; stroke-width: 1; stroke-dasharray: none; stroke-linecap: butt; stroke-dashoffset: 0; stroke-linejoin: miter; stroke-miterlimit: 4; fill: rgb(237,107,76); fill-rule: evenodd; opacity: 1;"  transform=" translate(-16.36, -16.36)" d="M 5.488 0.363 h 21.75 c 1.78 0 2.43 0.184 3.082 0.535 a 3.66 3.66 0 0 1 1.512 1.512 c 0.348 0.652 0.535 1.297 0.535 3.082 v 21.746 c 0 1.78 -0.187 2.43 -0.535 3.082 a 3.66 3.66 0 0 1 -1.512 1.512 c -0.652 0.348 -1.3 0.535 -3.082 0.535 H 5.488 c -1.78 0 -2.43 -0.187 -3.082 -0.535 A 3.66 3.66 0 0 1 0.895 30.32 c -0.348 -0.652 -0.535 -1.3 -0.535 -3.082 V 5.488 c 0 -1.78 0.188 -2.43 0.535 -3.082 A 3.71 3.71 0 0 1 2.406 0.895 c 0.652 -0.348 1.3 -0.53 3.082 -0.53 z m 0 0" stroke-linecap="round" />
</g>
		<g transform="matrix(1 0 0 1 8.69 8.69)"  >
<path style="stroke: none; stroke-width: 1; stroke-dasharray: none; stroke-linecap: butt; stroke-dashoffset: 0; stroke-linejoin: miter; stroke-miterlimit: 4; fill: rgb(237,107,76); fill-rule: evenodd; opacity: 1;"  transform=" translate(-33.69, -33.69)" d="M 44.563 49.69 H 22.816 c -1.78 0 -2.43 -0.184 -3.082 -0.535 c -0.645 -0.34 -1.172 -0.867 -1.512 -1.512 c -0.348 -0.652 -0.535 -1.297 -0.535 -3.082 V 22.816 c 0 -1.78 0.184 -2.43 0.535 -3.082 c 0.34 -0.645 0.867 -1.172 1.512 -1.512 c 0.652 -0.348 1.3 -0.535 3.082 -0.535 h 21.746 c 1.785 0 2.43 0.188 3.082 0.535 c 0.645 0.34 1.172 0.867 1.512 1.512 c 0.352 0.652 0.535 1.3 0.535 3.082 v 21.746 c 0 1.785 -0.184 2.43 -0.535 3.082 c -0.34 0.645 -0.867 1.172 -1.512 1.512 c -0.652 0.352 -1.297 0.535 -3.082 0.535 z m 0 0" stroke-linecap="round" />
</g>
		<g transform="matrix(1 0 0 1 0.11 -0.03)"  >
<path style="stroke: none; stroke-width: 1; stroke-dasharray: none; stroke-linecap: butt; stroke-dashoffset: 0; stroke-linejoin: miter; stroke-miterlimit: 4; fill: rgb(255,255,255); fill-rule: nonzero; opacity: 1;"  transform=" translate(-25.11, -24.97)" d="M 17.906 10.965 c -0.484 0 -0.875 0.387 -0.875 0.86 v 3.8 L 9.84 8.523 c -0.344 -0.336 -0.895 -0.336 -1.238 0 c -0.164 0.16 -0.254 0.38 -0.254 0.605 a 0.86 0.86 0 0 0 0.254 0.6 l 7.195 7.098 h -3.875 c -0.484 0 -0.875 0.387 -0.875 0.86 s 0.4 0.86 0.875 0.86 h 5.984 a 0.88 0.88 0 0 0 0.332 -0.066 a 0.86 0.86 0 0 0 0.473 -0.465 a 0.79 0.79 0 0 0 0.066 -0.328 v -5.87 c 0.004 -0.473 -0.387 -0.86 -0.87 -0.86 z m 14.418 28.008 c 0.48 0 0.87 -0.383 0.87 -0.86 v -3.797 l 7.195 7.098 a 0.88 0.88 0 0 0 1.234 0 a 0.85 0.85 0 0 0 0.258 -0.605 c 0 -0.23 -0.094 -0.45 -0.258 -0.605 l -7.2 -7.102 h 3.875 c 0.484 0 0.875 -0.383 0.875 -0.86 s -0.4 -0.855 -0.875 -0.855 h -5.984 a 0.92 0.92 0 0 0 -0.336 0.066 c -0.2 0.086 -0.383 0.25 -0.473 0.46 a 0.88 0.88 0 0 0 -0.066 0.328 v 5.87 c 0 0.477 0.4 0.86 0.875 0.86 z m -10.1 -10.1 c -0.355 0.352 -0.93 0.352 -1.285 0 s -0.355 -0.934 0 -1.3 a 0.91 0.91 0 0 1 1.285 0 c 0.355 0.352 0.355 0.934 0 1.3 z m 3.374 -3.357 a 0.91 0.91 0 0 1 -1.285 0 a 0.91 0.91 0 0 1 0 -1.285 c 0.352 -0.352 0.93 -0.352 1.285 0 a 0.91 0.91 0 0 1 0 1.285 z m 3.36 -3.364 a 0.91 0.91 0 0 1 -1.285 0 a 0.91 0.91 0 0 1 0 -1.285 a 0.91 0.91 0 0 1 1.285 0 a 0.91 0.91 0 0 1 0 1.285 z m 0 0" stroke-linecap="round" />
</g>
</g>
</g>
</svg>