<svg version="1.1" id="Layer_1" xmlns="http://www.w3.org/2000/svg" x="0" y="0" viewBox="0 0 200 116" xml:space="preserve"><style>.st6{fill:#fff}</style><linearGradient id="SVGID_1_" gradientUnits="userSpaceOnUse" x1="10.534" y1="-933.188" x2="197.888" y2="-933.188" gradientTransform="matrix(1 0 0 -1 0 -848)"><stop offset="0" stop-color="#bfd0e9" stop-opacity=".4"/><stop offset="1" stop-color="#859cd6" stop-opacity=".3"/></linearGradient><path d="M126.8 59.9c-31.2-6.4-42.6-6-81.1-2C5.8 62.1.8 88.2 25.9 88.2c39.9 0 60.7 27.2 93.8 27.2 27.6 0 40-3.2 58.6-9 16.1-5 32.3-17.5 4.6-21.6-40.4-6-38.2-21.2-56.1-24.9z" opacity=".3" fill="url(#SVGID_1_)"/><radialGradient id="SVGID_2_" cx="-602.279" cy="-3297.486" r="50.397" gradientTransform="matrix(1.1357 0 0 -.2406 818.708 -696.013)" gradientUnits="userSpaceOnUse"><stop offset="0" stop-color="#919fb9" stop-opacity=".6"/><stop offset=".191" stop-color="#95a3bc" stop-opacity=".485"/><stop offset=".392" stop-color="#a2aec4" stop-opacity=".365"/><stop offset=".597" stop-color="#b7c0d1" stop-opacity=".242"/><stop offset=".803" stop-color="#d4dae4" stop-opacity=".118"/><stop offset="1" stop-color="#f7f9fb" stop-opacity="0"/></radialGradient><ellipse cx="134.7" cy="97.4" rx="61.7" ry="12.9" opacity=".7" fill="url(#SVGID_2_)"/><linearGradient id="SVGID_3_" gradientUnits="userSpaceOnUse" x1="77.05" y1="-932.15" x2="97.525" y2="-932.15" gradientTransform="matrix(1 0 0 -1 0 -848)"><stop offset="0" stop-color="#ffcb5d"/><stop offset="1" stop-color="#ff723f"/></linearGradient><path d="M97.5 85.4l-10.1 6.3V87C81.7 87 77 82.3 77 76.6h3.2c0 4 3.2 7.2 7.2 7.2v-4.7l10.1 6.3z" fill="url(#SVGID_3_)"/><linearGradient id="SVGID_4_" gradientUnits="userSpaceOnUse" x1="88.6" y1="-916.2" x2="88.6" y2="-848.9" gradientTransform="matrix(1 0 0 -1 0 -848)"><stop offset="0" stop-color="#09bdf8"/><stop offset="1" stop-color="#1591d4"/></linearGradient><path d="M100.6.9h-33c-4 0-7.2 3.2-7.2 7.2V61c0 4 3.2 7.2 7.2 7.2h42c4 0 7.2-3.2 7.2-7.2V17.1L100.6.9z" fill="url(#SVGID_4_)"/><linearGradient id="SVGID_5_" gradientUnits="userSpaceOnUse" x1="89.76" y1="-894.1" x2="116.814" y2="-894.1" gradientTransform="matrix(1 0 0 -1 0 -848)"><stop offset="0" stop-color="#09bdf8" stop-opacity="0"/><stop offset="1" stop-color="#1591d4"/></linearGradient><path fill="url(#SVGID_5_)" d="M89.8 24h27.1v44.2H89.8z"/><linearGradient id="SVGID_6_" gradientUnits="userSpaceOnUse" x1="101.401" y1="-864.299" x2="108.701" y2="-856.999" gradientTransform="matrix(1 0 0 -1 0 -848)"><stop offset="0" stop-color="#2651a1"/><stop offset="1" stop-color="#1e3c74"/></linearGradient><path d="M103.3 17.1h13.5L100.6.9v13.5c0 1.5 1.2 2.7 2.7 2.7z" fill="url(#SVGID_6_)"/><path class="st6" d="M80.1 37.4h-1v2.7h-2.4v-9.4h3.4c2.8 0 4.2 1.1 4.2 3.2 0 2.2-1.5 3.5-4.2 3.5zm0-4.7h-1v2.8h1c1.2 0 1.8-.6 1.8-1.4 0-.9-.6-1.4-1.8-1.4zm8.5 7.4h-3.3v-9.4h3.3c3.6 0 5.6 1.4 5.6 4.6 0 3.1-1.9 4.8-5.6 4.8zm0-7.3h-.9v5.3h.9c2.2 0 3.2-.9 3.2-2.7 0-1.8-1-2.6-3.2-2.6zm13.3 0h-4.1v2.3h3.7v2h-3.7v3h-2.4v-9.4h6.5v2.1z"/><path fill="none" d="M0 0h200v116H0z"/><linearGradient id="SVGID_7_" gradientUnits="userSpaceOnUse" x1="105.968" y1="52.4" x2="163.47" y2="52.4" gradientTransform="matrix(1 0 0 -1 0 116)"><stop offset="0" stop-color="#1e3c74"/><stop offset="1" stop-color="#2651a1"/></linearGradient><path d="M156.2 97.3h-43c-4 0-7.3-3.3-7.3-7.3V37.2c0-4 3.3-7.3 7.3-7.3h43c4 0 7.3 3.3 7.3 7.3V90c0 4.1-3.3 7.3-7.3 7.3z" fill="url(#SVGID_7_)"/><path class="st6" d="M120.8 41.7h-4.6c-.8 0-1.5.7-1.5 1.5s.7 1.5 1.5 1.5h4.6c.8 0 1.5-.7 1.5-1.5s-.7-1.5-1.5-1.5zm0 26.6h-4.6c-.8 0-1.5.7-1.5 1.5s.7 1.5 1.5 1.5h4.6c.8 0 1.5-.7 1.5-1.5s-.7-1.5-1.5-1.5z"/><linearGradient id="SVGID_8_" gradientUnits="userSpaceOnUse" x1="117.4" y1="-898.6" x2="129.079" y2="-898.6" gradientTransform="matrix(1 0 0 -1 0 -848)"><stop offset="0" stop-color="#09bdf8"/><stop offset="1" stop-color="#1591d4"/></linearGradient><path d="M127.6 49.1h-8.7c-.8 0-1.5.7-1.5 1.5s.7 1.5 1.5 1.5h8.7c.8 0 1.5-.7 1.5-1.5s-.7-1.5-1.5-1.5z" fill="url(#SVGID_8_)"/><linearGradient id="SVGID_9_" gradientUnits="userSpaceOnUse" x1="117.403" y1="-911" x2="123.765" y2="-911" gradientTransform="matrix(1 0 0 -1 0 -848)"><stop offset=".002" stop-color="#ff7240"/><stop offset="1" stop-color="#fe4c49"/></linearGradient><path d="M122.3 61.5H119c-.8 0-1.5.7-1.5 1.5s.7 1.5 1.5 1.5h3.3c.8 0 1.5-.7 1.5-1.5 0-.9-.7-1.5-1.5-1.5z" fill="url(#SVGID_9_)"/><path class="st6" d="M134.9 49.1H133c-.8 0-1.5.7-1.5 1.5s.7 1.5 1.5 1.5h1.9c.8 0 1.5-.7 1.5-1.5s-.7-1.5-1.5-1.5z"/><linearGradient id="SVGID_10_" gradientUnits="userSpaceOnUse" x1="126.858" y1="-911" x2="144.658" y2="-911" gradientTransform="matrix(1 0 0 -1 0 -848)"><stop offset="0" stop-color="#09bdf8"/><stop offset="1" stop-color="#1591d4"/></linearGradient><path d="M143.2 61.5h-14.8c-.8 0-1.5.7-1.5 1.5s.7 1.5 1.5 1.5h14.8c.8 0 1.5-.7 1.5-1.5 0-.9-.7-1.5-1.5-1.5z" fill="url(#SVGID_10_)"/><linearGradient id="SVGID_11_" gradientUnits="userSpaceOnUse" x1="139.342" y1="-898.6" x2="144.665" y2="-898.6" gradientTransform="matrix(1 0 0 -1 0 -848)"><stop offset=".002" stop-color="#ff7240"/><stop offset="1" stop-color="#fe4c49"/></linearGradient><path d="M143.2 49.1h-2.3c-.8 0-1.5.7-1.5 1.5s.7 1.5 1.5 1.5h2.3c.8 0 1.5-.7 1.5-1.5s-.7-1.5-1.5-1.5z" fill="url(#SVGID_11_)"/><path class="st6" d="M129.3 55.3h-7.6c-.8 0-1.5.7-1.5 1.5s.7 1.5 1.5 1.5h7.6c.8 0 1.5-.7 1.5-1.5 0-.9-.7-1.5-1.5-1.5zm21.2 0h-16.1c-.8 0-1.5.7-1.5 1.5s.7 1.5 1.5 1.5h16.1c.8 0 1.5-.7 1.5-1.5.1-.9-.6-1.5-1.5-1.5zm-25.2 33h-2.4v-3.8h-3.6v3.8H117v-9.4h2.4v3.6h3.6v-3.6h2.4l-.1 9.4zm9.4-7.4h-3.1v7.4h-2.4v-7.4h-3.1v-2h8.6v2zm11.5 7.4h-2.3v-5.1l-2.1 5.1H140l-2.1-5.1v5.1h-2.3v-9.4h2.7l2.7 6.3 2.7-6.3h2.6l-.1 9.4zm3.9-2.1h4.2v2.1h-6.6v-9.4h2.4v7.3z"/></svg>