<?xml version="1.0" encoding="UTF-8" standalone="no" ?>
<!DOCTYPE svg PUBLIC "-//W3C//DTD SVG 1.1//EN" "http://www.w3.org/Graphics/SVG/1.1/DTD/svg11.dtd">
<svg xmlns="http://www.w3.org/2000/svg" xmlns:xlink="http://www.w3.org/1999/xlink" version="1.1" width="750" height="750" viewBox="0 0 750 750" xml:space="preserve">
<desc>Created with Fabric.js 3.6.6</desc>
<defs>
</defs>
<g transform="matrix(7.5 0 0 7.5 373.38 373.87)"  >
<polygon style="stroke: rgb(0,0,0); stroke-width: 0; stroke-dasharray: none; stroke-linecap: butt; stroke-dashoffset: 0; stroke-linejoin: miter; stroke-miterlimit: 4; fill: rgb(216,176,228); fill-rule: nonzero; opacity: 1;"  points="-50,-50 -50,50 50,50 50,-50 " />
</g>
<g transform="matrix(5.79 0 0 5.79 405.09 386.73)"  >
<g style=""   >
		<g transform="matrix(1 0 0 1 -8.84 -8.84)"  >
<path style="stroke: none; stroke-width: 1; stroke-dasharray: none; stroke-linecap: butt; stroke-dashoffset: 0; stroke-linejoin: miter; stroke-miterlimit: 4; fill: rgb(249,237,165); fill-rule: evenodd; opacity: 1;"  transform=" translate(-16.16, -16.16)" d="M 32.324 15.656 h -9.55 c -2.477 0 -3.375 0.258 -4.28 0.742 a 5.06 5.06 0 0 0 -2.098 2.102 c -0.484 0.902 -0.742 1.8 -0.742 4.277 v 9.55 H 5.18 c -1.8 0 -2.453 -0.187 -3.113 -0.54 a 3.69 3.69 0 0 1 -1.527 -1.527 C 0.188 29.598 0 28.945 0 27.145 V 5.18 c 0 -1.8 0.188 -2.453 0.54 -3.113 A 3.69 3.69 0 0 1 2.066 0.539 C 2.727 0.188 3.38 0 5.18 0 h 21.965 c 1.8 0 2.453 0.188 3.113 0.54 a 3.69 3.69 0 0 1 1.527 1.527 c 0.352 0.66 0.54 1.313 0.54 3.113 z m 0 0" stroke-linecap="round" />
</g>
		<g transform="matrix(1 0 0 1 -14.73 -14.81)"  >
<path style="stroke: none; stroke-width: 1; stroke-dasharray: none; stroke-linecap: butt; stroke-dashoffset: 0; stroke-linejoin: miter; stroke-miterlimit: 4; fill: rgb(181,158,0); fill-rule: nonzero; opacity: 1;"  transform=" translate(-10.27, -10.19)" d="M 14.477 7.52 c 0 -0.477 -0.395 -0.863 -0.883 -0.863 s -0.883 0.387 -0.883 0.863 v 3.844 L 7.566 6.316 a 0.89 0.89 0 0 0 -1.246 0 c -0.168 0.16 -0.258 0.38 -0.258 0.61 s 0.1 0.453 0.258 0.613 l 5.145 5.05 H 7.55 c -0.488 0 -0.883 0.387 -0.883 0.867 s 0.395 0.863 0.883 0.863 h 6.047 a 0.85 0.85 0 0 0 0.34 -0.066 c 0.215 -0.086 0.387 -0.254 0.477 -0.47 c 0.05 -0.102 0.066 -0.215 0.066 -0.328 l 0.004 -5.934 z m 0 0" stroke-linecap="round" />
</g>
		<g transform="matrix(1 0 0 1 8.84 8.84)"  >
<path style="stroke: none; stroke-width: 1; stroke-dasharray: none; stroke-linecap: butt; stroke-dashoffset: 0; stroke-linejoin: miter; stroke-miterlimit: 4; fill: rgb(211,188,43); fill-rule: evenodd; opacity: 1;"  transform=" translate(-33.84, -33.84)" d="M 22.855 17.676 H 44.82 c 1.8 0 2.453 0.188 3.113 0.543 c 0.648 0.344 1.184 0.875 1.527 1.527 c 0.352 0.656 0.54 1.31 0.54 3.11 V 44.82 c 0 1.8 -0.187 2.453 -0.54 3.113 a 3.69 3.69 0 0 1 -1.527 1.527 c -0.66 0.352 -1.312 0.54 -3.113 0.54 H 22.855 c -1.8 0 -2.453 -0.187 -3.113 -0.54 c -0.648 -0.344 -1.18 -0.88 -1.527 -1.527 c -0.352 -0.66 -0.54 -1.312 -0.54 -3.113 V 22.855 c 0 -1.8 0.188 -2.453 0.54 -3.113 c 0.348 -0.648 0.88 -1.18 1.527 -1.527 c 0.66 -0.352 1.313 -0.54 3.113 -0.54 z m 0 0" stroke-linecap="round" />
</g>
		<g transform="matrix(1 0 0 1 9.02 7.5)"  >
<path style="stroke: none; stroke-width: 1; stroke-dasharray: none; stroke-linecap: butt; stroke-dashoffset: 0; stroke-linejoin: miter; stroke-miterlimit: 4; fill: rgb(255,255,255); fill-rule: evenodd; opacity: 1;"  transform=" translate(-34.02, -32.5)" d="M 41.5 26 c 1.102 0 2 0.898 2 2 s -0.898 2 -2 2 s -2 -0.898 -2 -2 s 0.898 -2 2 -2 z M 30.6 39 h -6.344 c -0.1 0 -0.172 -0.047 -0.215 -0.125 s -0.043 -0.168 0.004 -0.242 l 6.574 -11.02 a 0.26 0.26 0 0 1 0.426 0 l 3.832 6.422 l 2.57 -2.625 c 0.047 -0.05 0.11 -0.074 0.176 -0.074 h 0.008 c 0.07 0 0.137 0.03 0.18 0.086 l 6.1 7.13 c 0.07 0.043 0.11 0.12 0.11 0.203 c 0 0.133 -0.113 0.242 -0.246 0.242 H 30.6 v -0.004 z m 0 0" stroke-linecap="round" />
</g>
</g>
</g>
</svg>