<svg width="200" height="200" viewBox="0 0 200 200" fill="none" xmlns="http://www.w3.org/2000/svg">
<path d="M130.252 0C127.352 0 125 2.35051 125 5.25C125 8.14949 127.352 10.5 130.252 10.5H135.505C137.982 10.5 140.637 11.677 142.74 13.7862C144.845 15.898 146.01 18.5565 146.01 21V23.625H138.945C135.904 23.625 134.38 27.3007 136.531 29.4505L147.548 40.4623C149.599 42.5126 152.925 42.5126 154.976 40.4623L165.993 29.4505C168.144 27.3007 166.621 23.625 163.579 23.625H156.515V21C156.515 15.3249 153.903 10.1084 150.181 6.37479C146.456 2.63864 141.233 0 135.505 0H130.252Z" fill="#ED5739"/>
<path d="M69.7476 200C72.6484 200 75 197.649 75 194.75C75 191.851 72.6484 189.5 69.7476 189.5L64.4951 189.5C62.0181 189.5 59.3628 188.323 57.2601 186.214C55.1549 184.102 53.9902 181.444 53.9902 179L53.9902 176.375L61.0546 176.375C64.0963 176.375 65.6195 172.699 63.4688 170.55L52.4518 159.538C50.4006 157.487 47.075 157.487 45.0238 159.538L34.0068 170.55C31.8561 172.699 33.3793 176.375 36.4209 176.375L43.4854 176.375L43.4854 179C43.4854 184.675 46.0968 189.892 49.8189 193.625C53.5436 197.361 58.767 200 64.4951 200L69.7476 200Z" fill="#ED5739"/>
<path d="M20 38C20 31.6994 20 28.5491 21.2262 26.1426C22.3048 24.0258 24.0258 22.3048 26.1426 21.2262C28.5491 20 31.6994 20 38 20H107C113.301 20 116.451 20 118.857 21.2262C120.974 22.3048 122.695 24.0258 123.774 26.1426C125 28.5491 125 31.6994 125 38V132C125 138.301 125 141.451 123.774 143.857C122.695 145.974 120.974 147.695 118.857 148.774C116.451 150 113.301 150 107 150H38C31.6994 150 28.5491 150 26.1426 148.774C24.0258 147.695 22.3048 145.974 21.2262 143.857C20 141.451 20 138.301 20 132V38Z" fill="#ED5739" fill-opacity="0.5"/>
<path d="M93 180H162C168.301 180 171.451 180 173.857 178.774C175.974 177.695 177.695 175.974 178.774 173.857C180 171.451 180 168.301 180 162V70C180 63.6994 180 60.5491 178.774 58.1426C177.695 56.0258 175.974 54.3048 173.857 53.2262C171.451 52 168.301 52 162 52H93C86.6994 52 83.5491 52 81.1426 53.2262C79.0258 54.3048 77.3048 56.0258 76.2262 58.1426C75 60.5491 75 63.6994 75 70V162C75 168.301 75 171.451 76.2262 173.857C77.3048 175.974 79.0258 177.695 81.1426 178.774C83.5491 180 86.6994 180 93 180Z" fill="#ED5739"/>
<path d="M102.121 124.869C99.0375 121.688 102.373 117.317 111.426 112.676L117.122 109.755L119.341 104.746C120.561 101.991 122.383 97.4959 123.389 94.7568L125.218 89.7764L123.957 86.0906C122.408 81.5586 121.855 74.7482 122.838 72.2993C124.17 68.9822 128.532 69.3226 130.259 72.8783C131.608 75.6553 131.47 80.6844 129.871 87.0268L128.561 92.2265L129.715 94.2486C130.35 95.3607 132.205 98.0015 133.837 100.117L136.905 104.053L140.721 103.539C152.847 101.907 157 104.681 157 108.659C157 113.68 147.479 114.094 139.484 108.301C137.685 106.997 136.449 105.702 136.449 105.702C136.449 105.702 131.44 106.754 128.974 107.44C126.429 108.148 125.159 108.591 121.43 109.89C121.43 109.89 120.122 111.85 119.269 113.275C116.097 118.576 112.394 122.97 109.749 124.569C106.788 126.359 103.684 126.481 102.121 124.869V124.869ZM106.959 123.086C108.692 121.981 112.2 117.7 114.628 113.728L115.611 112.119L111.135 114.441C104.221 118.028 101.058 121.408 102.703 123.452C103.627 124.601 104.732 124.506 106.959 123.086V123.086ZM151.867 110.081C153.563 108.856 153.316 106.387 151.4 105.392C149.909 104.617 148.707 104.458 144.832 104.517C142.451 104.685 138.623 105.18 137.974 105.33C137.974 105.33 140.077 106.83 141.011 107.381C142.254 108.114 145.275 109.473 147.48 110.17C149.656 110.857 150.914 110.784 151.867 110.081V110.081ZM133.81 102.338C132.784 101.225 131.04 98.903 129.934 97.1775C128.487 95.22 127.762 93.839 127.762 93.839C127.762 93.839 126.704 97.348 125.837 99.4595L123.13 106.361L122.346 107.927C122.346 107.927 126.517 106.516 128.64 105.944C130.888 105.338 135.451 104.412 135.451 104.412L133.81 102.338ZM127.991 78.262C128.253 75.9965 128.364 73.7344 127.658 72.5937C125.702 70.3866 123.34 72.2271 123.74 77.4744C123.874 79.2396 124.299 82.2572 124.868 84.1171L125.901 87.4987L126.628 84.9518C127.028 83.551 127.641 80.5406 127.991 78.262V78.262Z" fill="white" stroke="white" stroke-width="1.85625"/>
<path d="M105.025 151.294H106.678C108.223 151.294 109.379 150.988 110.147 150.375C110.914 149.751 111.298 148.848 111.298 147.666C111.298 146.473 110.973 145.592 110.325 145.023C109.687 144.454 108.683 144.17 107.31 144.17H105.025V151.294ZM116.371 147.486C116.371 150.068 115.571 152.044 113.972 153.412C112.384 154.78 110.12 155.464 107.18 155.464H105.025V164H100V140H107.57C110.444 140 112.627 140.629 114.118 141.888C115.62 143.135 116.371 145.001 116.371 147.486Z" fill="white"/>
<path d="M140.506 151.77C140.506 155.721 139.393 158.747 137.167 160.848C134.952 162.949 131.748 164 127.555 164H120.845V140H128.284C132.153 140 135.157 141.034 137.296 143.103C139.436 145.171 140.506 148.06 140.506 151.77ZM135.287 151.902C135.287 146.747 133.039 144.17 128.544 144.17H125.869V159.798H128.025C132.866 159.798 135.287 157.166 135.287 151.902Z" fill="white"/>
<path d="M150.361 164H145.417V140H159V144.17H150.361V150.358H158.4V154.512H150.361V164Z" fill="white"/>
</svg>
