<svg xmlns="http://www.w3.org/2000/svg" xmlns:xlink="http://www.w3.org/1999/xlink" viewBox="0 0 200 116"><linearGradient id="a" gradientUnits="userSpaceOnUse" x1="23.897" y1="86.924" x2="198.675" y2="86.924"><stop offset="0" stop-color="#f9fafc"/><stop offset="1" stop-color="#f1f3f8"/></linearGradient><path fill="url(#a)" d="M122.632 60.895c-31.218-6.415-42.871 5.517-75.037 5.517-29.423 0-33.346 30.354-.98 30.354 20.179 0 54.923 18.082 72.171 18.082 16.02 0 16.446-7.572 62.682-7.572 21.417 0 24.822-23.776-1.141-23.776-40.88 0-39.759-18.92-57.695-22.605z"/><linearGradient id="b" gradientUnits="userSpaceOnUse" x1="98.803" y1="68.08" x2="98.803" y2=".827"><stop offset="0" stop-color="#09bdf8"/><stop offset="1" stop-color="#1591d4"/></linearGradient><path fill="url(#b)" d="M110.773.827H77.809a7.2 7.2 0 00-7.2 7.2V60.88a7.2 7.2 0 007.2 7.2h41.989a7.2 7.2 0 007.2-7.2V16.967L110.773.828z"/><linearGradient id="c" gradientUnits="userSpaceOnUse" x1="99.944" y1="45.98" x2="126.998" y2="45.98"><stop offset="0" stop-color="#09bdf8" stop-opacity="0"/><stop offset="1" stop-color="#1591d4"/></linearGradient><path fill="url(#c)" d="M99.944 23.881h27.054v44.198H99.944z"/><linearGradient id="d" gradientUnits="userSpaceOnUse" x1="111.609" y1="16.197" x2="118.908" y2="8.897"><stop offset="0" stop-color="#2651a1"/><stop offset="1" stop-color="#1e3c74"/></linearGradient><path fill="url(#d)" d="M113.515 16.987h13.483L110.818.807V14.29a2.697 2.697 0 002.697 2.697z"/><path d="M90.282 37.278h-1.02v2.746h-2.378v-9.38h3.426c2.828 0 4.187 1.142 4.187 3.25 0 2.093-1.496 3.384-4.215 3.384zm0-4.65h-1.02v2.788h1.007c1.25 0 1.836-.557 1.836-1.427s-.572-1.36-1.823-1.36zm8.521 7.397h-3.304v-9.38h3.304c3.643 0 5.628 1.427 5.628 4.581 0 3.03-1.904 4.799-5.628 4.799zm-.028-7.37h-.897v5.317h.897c2.216 0 3.236-.924 3.236-2.732 0-1.754-1.02-2.584-3.236-2.584zm13.292.001h-4.133v2.311h3.738v2.013h-3.738v3.045h-2.38v-9.38h6.512v2.01z" fill="#FFF"/><radialGradient id="e" cx="-1209.99" cy="1076.322" r="50.387" gradientTransform="matrix(.9956 0 0 .2406 1349.253 -162.226)" gradientUnits="userSpaceOnUse"><stop offset="0" stop-color="#919fb9" stop-opacity=".6"/><stop offset=".191" stop-color="#95a3bc" stop-opacity=".485"/><stop offset=".392" stop-color="#a2aec4" stop-opacity=".365"/><stop offset=".597" stop-color="#b7c0d1" stop-opacity=".242"/><stop offset=".803" stop-color="#d4dae4" stop-opacity=".118"/><stop offset="1" stop-color="#f7f9fb" stop-opacity="0"/></radialGradient><ellipse opacity=".7" fill="url(#e)" cx="144.552" cy="96.766" rx="54.123" ry="12.944"/><linearGradient id="f" gradientUnits="userSpaceOnUse" x1="144.552" y1="96.766" x2="144.552" y2="29.372"><stop offset="0" stop-color="#2651a1"/><stop offset="1" stop-color="#1e3c74"/></linearGradient><path fill="url(#f)" d="M166.027 96.766h-42.95a7.276 7.276 0 01-7.276-7.275V36.647a7.275 7.275 0 017.275-7.275h42.951a7.275 7.275 0 017.276 7.275v52.844a7.275 7.275 0 01-7.276 7.275z"/><linearGradient id="g" gradientUnits="userSpaceOnUse" x1="144.552" y1="82.069" x2="144.552" y2="32.562"><stop offset="0" stop-color="#dbf0fc"/><stop offset="1" stop-color="#a3daf2"/></linearGradient><path fill="url(#g)" d="M166.357 82.069h-42.05a5.52 5.52 0 01-5.52-5.52V38.082a5.52 5.52 0 015.52-5.52h40.49a5.52 5.52 0 015.52 5.52V78.11a3.96 3.96 0 01-3.96 3.96z"/><linearGradient id="h" gradientUnits="userSpaceOnUse" x1="144.552" y1="82.069" x2="144.552" y2="32.562"><stop offset="0" stop-color="#eff3f6"/><stop offset=".999" stop-color="#3d7ad6"/></linearGradient><path fill="url(#h)" d="M164.797 33.462a4.625 4.625 0 014.62 4.62V78.11a3.063 3.063 0 01-3.06 3.06h-42.05a4.625 4.625 0 01-4.62-4.62V38.082a4.625 4.625 0 014.62-4.62h40.49m0-.9h-40.49a5.52 5.52 0 00-5.52 5.52v38.466a5.52 5.52 0 005.52 5.52h42.05a3.96 3.96 0 003.96-3.96V38.083a5.52 5.52 0 00-5.52-5.52z"/><linearGradient id="i" gradientUnits="userSpaceOnUse" x1="144.552" y1="81.258" x2="144.552" y2="51.565"><stop offset="0" stop-color="#ddedf8"/><stop offset="1" stop-color="#f5fbfe"/></linearGradient><path fill="url(#i)" d="M119.596 62.033s4.512-1.35 10.109-4.782c0 0 3.529 5.281 10.108 6.95 0 0 6.701-4.587 10.826-12.636 0 0 13.08 2.871 18.868 12.635v13.9a3.159 3.159 0 01-3.159 3.158h-43.593a3.159 3.159 0 01-3.159-3.158V62.034z"/><defs><path id="j" d="M119.596 62.033s4.512-1.35 10.109-4.782c0 0 3.529 5.281 10.108 6.95 0 0 6.701-4.587 10.826-12.636 0 0 13.08 2.871 18.868 12.635v13.9a3.159 3.159 0 01-3.159 3.158h-43.593a3.159 3.159 0 01-3.159-3.158V62.034z"/></defs><clipPath id="k"><use xlink:href="#j" overflow="visible"/></clipPath><linearGradient id="l" gradientUnits="userSpaceOnUse" x1="152.22" y1="44.792" x2="167.192" y2="76.76"><stop offset="0" stop-color="#9acee9"/><stop offset="1" stop-color="#ecf5f9"/></linearGradient><path clip-path="url(#k)" fill="url(#l)" d="M159.939 66.412s-2.878 3.979-8.047 7.816c0 0 10.496.7 14.296 7.03h3.32V51.566h-18.869s.488 7.767 9.3 14.847z"/><defs><path id="m" d="M119.596 62.033s4.512-1.35 10.109-4.782c0 0 3.529 5.281 10.108 6.95 0 0 6.701-4.587 10.826-12.636 0 0 13.08 2.871 18.868 12.635v13.9a3.159 3.159 0 01-3.159 3.158h-43.593a3.159 3.159 0 01-3.159-3.158V62.034z"/></defs><clipPath id="n"><use xlink:href="#m" overflow="visible"/></clipPath><linearGradient id="o" gradientUnits="userSpaceOnUse" x1="128.303" y1="53.099" x2="137.095" y2="71.871"><stop offset="0" stop-color="#9acee9"/><stop offset="1" stop-color="#ecf5f9"/></linearGradient><path clip-path="url(#n)" fill="url(#o)" d="M139.813 64.2s-3.68 3.498-1.08 6.519c.764.887-3.737 5.413-3.737 5.413s-10.46-7.677-5.291-18.881c3.575-7.75 10.108 6.95 10.108 6.95z"/><linearGradient id="p" gradientUnits="userSpaceOnUse" x1="134.805" y1="50.691" x2="134.805" y2="40.059"><stop offset="0" stop-color="#ffcb5d"/><stop offset="1" stop-color="#ffe9c5"/></linearGradient><circle fill="url(#p)" cx="134.805" cy="45.375" r="5.316"/><linearGradient id="q" gradientUnits="userSpaceOnUse" x1="86.883" y1="83.5" x2="107.358" y2="83.5"><stop offset="0" stop-color="#ffcb5d"/><stop offset="1" stop-color="#ff723f"/></linearGradient><path fill="url(#q)" d="M107.358 84.76l-10.08 6.3v-4.725c-5.732 0-10.395-4.664-10.395-10.395h3.15c0 3.995 3.25 7.245 7.245 7.245V78.46l10.08 6.3z"/><path fill="none" d="M0 0h200v116H0z"/></svg>