<svg version="1.1" id="Layer_1" xmlns="http://www.w3.org/2000/svg" x="0" y="0" viewBox="0 0 200 116" xml:space="preserve"><style>.st5{fill:#fff}</style><path fill="none" d="M0 0h200v116H0z"/><linearGradient id="SVGID_1_" gradientUnits="userSpaceOnUse" x1="7.854" y1="-1796.377" x2="195.188" y2="-1796.377" gradientTransform="matrix(1 0 0 -1 0 -1714)"><stop offset="0" stop-color="#bfd0e9" stop-opacity=".4"/><stop offset="1" stop-color="#859cd6" stop-opacity=".3"/></linearGradient><path d="M115.5 54.5c-31.2-6.4-35.6 5.8-72.4 5.8C3 60.3-1.8 88.6 23.2 88.6c29.4 0 53.6 23.5 94.7 23.5 21.7 0 39.1.5 57.7-5.3 16.1-5 32.3-17.5 4.6-21.6-40.3-6-46.8-27-64.7-30.7z" opacity=".3" fill="url(#SVGID_1_)"/><radialGradient id="SVGID_2_" cx="-864.569" cy="-10235.992" r="50.386" gradientTransform="matrix(1.1357 0 0 -.2406 1113.99 -2365.98)" gradientUnits="userSpaceOnUse"><stop offset="0" stop-color="#919fb9" stop-opacity=".6"/><stop offset=".191" stop-color="#95a3bc" stop-opacity=".485"/><stop offset=".392" stop-color="#a2aec4" stop-opacity=".365"/><stop offset=".597" stop-color="#b7c0d1" stop-opacity=".242"/><stop offset=".803" stop-color="#d4dae4" stop-opacity=".118"/><stop offset="1" stop-color="#f7f9fb" stop-opacity="0"/></radialGradient><ellipse cx="132.1" cy="96.8" rx="61.7" ry="12.9" opacity=".7" fill="url(#SVGID_2_)"/><linearGradient id="SVGID_3_" gradientUnits="userSpaceOnUse" x1="74.425" y1="-1797.55" x2="94.9" y2="-1797.55" gradientTransform="matrix(1 0 0 -1 0 -1714)"><stop offset="0" stop-color="#ffcb5d"/><stop offset="1" stop-color="#ff723f"/></linearGradient><path d="M94.9 84.8l-10.1 6.3v-4.7c-5.7 0-10.4-4.7-10.4-10.4h3.2c0 4 3.2 7.2 7.2 7.2v-4.7l10.1 6.3z" fill="url(#SVGID_3_)"/><linearGradient id="SVGID_4_" gradientUnits="userSpaceOnUse" x1="86.7" y1="-817.983" x2="86.7" y2="-750.697" gradientTransform="matrix(1 0 0 -1 0 -750)"><stop offset="0" stop-color="#2651a1"/><stop offset="1" stop-color="#1e3c74"/></linearGradient><path d="M108.2 68.1h-43c-4 0-7.3-3.3-7.3-7.3V8c0-4 3.3-7.3 7.3-7.3h43c4 0 7.3 3.3 7.3 7.3v52.8c0 4.1-3.3 7.3-7.3 7.3z" fill="url(#SVGID_4_)"/><path class="st5" d="M102 55.8h-4l-3.6-10.7-3.6 10.7h-4l-4-16.3h4.3l2 10.3 3.2-10.3h4l3.2 10.3 2-10.3h4.3L102 55.8z"/><linearGradient id="SVGID_5_" gradientUnits="userSpaceOnUse" x1="86.75" y1="-1764.655" x2="86.75" y2="-1728.305" gradientTransform="matrix(1 0 0 -1 0 -1714)"><stop offset="0" stop-color="#d2d8ee"/><stop offset="1" stop-color="#f1f7fb"/></linearGradient><path d="M105.3 22.6H68.2c-.8 0-1.5.7-1.5 1.5s.7 1.5 1.5 1.5h37.1c.8 0 1.5-.7 1.5-1.5s-.7-1.5-1.5-1.5zm0-8.3H68.2c-.8 0-1.5.7-1.5 1.5s.7 1.5 1.5 1.5h37.1c.8 0 1.5-.7 1.5-1.5s-.7-1.5-1.5-1.5zm0 16.7H68.2c-.8 0-1.5.7-1.5 1.5s.7 1.5 1.5 1.5h37.1c.8 0 1.5-.7 1.5-1.5 0-.9-.7-1.5-1.5-1.5zm-30 8.3h-7.1c-.8 0-1.5.7-1.5 1.5s.7 1.5 1.5 1.5h7.1c.8 0 1.5-.7 1.5-1.5s-.6-1.5-1.5-1.5zm0 8.3h-7.1c-.8 0-1.5.7-1.5 1.5s.7 1.5 1.5 1.5h7.1c.8 0 1.5-.7 1.5-1.5s-.6-1.5-1.5-1.5z" fill="url(#SVGID_5_)"/><linearGradient id="SVGID_6_" gradientUnits="userSpaceOnUse" x1="-1669.221" y1="164.952" x2="-1642.167" y2="164.952" gradientTransform="matrix(-1 0 0 1 -1553.677 -118.951)"><stop offset="0" stop-color="#133462" stop-opacity=".6"/><stop offset="1" stop-color="#24396e" stop-opacity="0"/></linearGradient><path d="M108.3 68.1H88.4V23.9h27.1v37c0 4-3.2 7.2-7.2 7.2z" fill="url(#SVGID_6_)"/><linearGradient id="SVGID_7_" gradientUnits="userSpaceOnUse" x1="132.6" y1="-1810.8" x2="132.6" y2="-1743.5" gradientTransform="matrix(1 0 0 -1 0 -1714)"><stop offset="0" stop-color="#09bdf8"/><stop offset="1" stop-color="#1591d4"/></linearGradient><path d="M144.6 29.5h-33c-4 0-7.2 3.2-7.2 7.2v52.9c0 4 3.2 7.2 7.2 7.2h42c4 0 7.2-3.2 7.2-7.2v-44l-16.2-16.1z" fill="url(#SVGID_7_)"/><linearGradient id="SVGID_8_" gradientUnits="userSpaceOnUse" x1="145.488" y1="-1758.912" x2="152.787" y2="-1751.613" gradientTransform="matrix(1 0 0 -1 0 -1714)"><stop offset="0" stop-color="#2651a1"/><stop offset="1" stop-color="#1e3c74"/></linearGradient><path d="M147.4 45.7h13.5l-16.2-16.2V43c0 1.5 1.2 2.7 2.7 2.7z" fill="url(#SVGID_8_)"/><path class="st5" d="M124.1 66h-1v2.7h-2.4v-9.4h3.4c2.8 0 4.2 1.1 4.2 3.2 0 2.2-1.5 3.5-4.2 3.5zm0-4.7h-1v2.8h1c1.2 0 1.8-.6 1.8-1.4.1-.9-.5-1.4-1.8-1.4zm8.5 7.4h-3.3v-9.4h3.3c3.6 0 5.6 1.4 5.6 4.6.1 3-1.8 4.8-5.6 4.8zm0-7.4h-.9v5.3h.9c2.2 0 3.2-.9 3.2-2.7.1-1.7-1-2.6-3.2-2.6zm13.3 0h-4.1v2.3h3.7v2h-3.7v3h-2.4v-9.4h6.5v2.1z"/></svg>